# xmcd
#
# Track frame offsets: 
#        182
#        25322
#        40435
#        55955
#        69350
#        85502
#        105182
#        124865
#        148162
#        162392
#        186035
#        203457
#
# Disc length: 3061 seconds
#
# Revision: 1
# Processed by: cddbd v1.5.2PL0 Copyright (c) Steve Scherf et al.
# Submitted via: ExactAudioCopy v0.99pb5
#
DISCID=9c0bf30c
DTITLE=Benny - El Tiempo
DYEAR=1994
DGENRE=Pop
TTITLE0=Sin ti
TTITLE1=No me va tan mal
TTITLE2=Mía
TTITLE3=Me das miedo
TTITLE4=Cielo
TTITLE5=Nuevo amanecer
TTITLE6=Canción de Luna
TTITLE7=Como un ángel
TTITLE8=Yo me enamore de ti
TTITLE9=Tu rosa
TTITLE10=Estoy
TTITLE11=El tiempo
EXTD=
EXTT0=
EXTT1=
EXTT2=
EXTT3=
EXTT4=
EXTT5=
EXTT6=
EXTT7=
EXTT8=
EXTT9=
EXTT10=
EXTT11=
PLAYORDER=
